<svg xmlns="http://www.w3.org/2000/svg" viewBox="0 0 51.72 21.23"><title>Asset 5</title><g id="Layer_2" data-name="Layer 2"><g id="Layer_1-2" data-name="Layer 1"><path d="M9.46,2.74A3.83,3.83,0,0,0,10.34,0,3.79,3.79,0,0,0,7.82,1.31a3.61,3.61,0,0,0-.91,2.63,3.21,3.21,0,0,0,2.55-1.2"/><path d="M10.33,4.13c-1.4-.09-2.6.8-3.27.8s-1.7-.76-2.81-.74A4.16,4.16,0,0,0,.72,6.33C-.79,8.94.32,12.8,1.79,14.92,2.51,16,3.37,17.13,4.5,17.09s1.49-.7,2.79-.7,1.68.7,2.81.67S12,16,12.73,15a9.09,9.09,0,0,0,1.17-2.41,3.81,3.81,0,0,1-2.29-3.47,3.88,3.88,0,0,1,1.85-3.25,4,4,0,0,0-3.13-1.7"/><path d="M24.36,1.2a5,5,0,0,1,5.18,5.18,5,5,0,0,1-5.26,5.19H20.9V17H18.45V1.2ZM20.9,9.52h2.8C25.83,9.52,27,8.37,27,6.39s-1.21-3.13-3.33-3.13H20.9Z"/><path d="M30.15,13.69c0-2,1.54-3.18,4.38-3.35l3-.19V9.28c0-1.28-.84-2-2.33-2a2.16,2.16,0,0,0-2.32,1.61h-2.2c.06-2,2-3.53,4.58-3.53,2.8,0,4.62,1.47,4.62,3.74V17H37.66V15.07H37.6a4,4,0,0,1-3.6,2C31.73,17.08,30.15,15.72,30.15,13.69Zm7.42-1v-.89L34.85,12c-1.52.09-2.32.66-2.32,1.66s.83,1.58,2.13,1.58A2.66,2.66,0,0,0,37.57,12.68Z"/><path d="M42,21.17V19.28c.15,0,.52,0,.72,0a1.94,1.94,0,0,0,2.06-1.63L45,17,40.86,5.52h2.56l2.88,9.31h.05l2.89-9.31h2.48L47.43,17.57c-1,2.76-2.1,3.66-4.48,3.66A7.23,7.23,0,0,1,42,21.17Z"/></g></g></svg>