<svg xmlns="http://www.w3.org/2000/svg" viewBox="0 0 39.86 28.54"><defs><style>.cls-1{fill:none;}.cls-2{fill:#ffc878;}.cls-3{fill:#474c54;}.cls-4{fill:#ef866c;}.cls-5{fill:#ffa400;}</style></defs><title>Asset 3</title><g id="Layer_2" data-name="Layer 2"><g id="Layer_1-2" data-name="Layer 1"><path class="cls-1" d="M3,6.27V5.09a2,2,0,0,1,2-2H38.13a3.14,3.14,0,0,0-2.81-1.73H4.53A3.15,3.15,0,0,0,1.39,4.53V6.27Z"/><path class="cls-1" d="M3,11.13H1.39V24A3.15,3.15,0,0,0,3,26.73Z"/><path class="cls-2" d="M4.53,27.15H35.32A3.15,3.15,0,0,0,38.47,24V11.13H3v15.6A3.1,3.1,0,0,0,4.53,27.15Zm24.2-9a3.15,3.15,0,0,1,2,.7,3.15,3.15,0,1,1,0,4.89,3.15,3.15,0,1,1-2-5.59ZM5.42,14.88H19.93v1.43H5.42Zm0,2.87H19.93v1.43H5.42Z"/><path class="cls-2" d="M3,5.09V6.27H38.47V4.53a3,3,0,0,0-.34-1.41H4.92A2,2,0,0,0,3,5.09Z"/><path class="cls-3" d="M35.32,0H4.53A4.53,4.53,0,0,0,0,4.53V24a4.53,4.53,0,0,0,4.53,4.53H35.32A4.54,4.54,0,0,0,39.86,24V4.53A4.54,4.54,0,0,0,35.32,0ZM4.53,1.39H35.32a3.14,3.14,0,0,1,2.81,1.73,3,3,0,0,1,.34,1.41V6.27H1.39V4.53A3.15,3.15,0,0,1,4.53,1.39ZM1.39,24V11.13H38.47V24a3.15,3.15,0,0,1-3.15,3.14H4.53A3.1,3.1,0,0,1,3,26.73,3.15,3.15,0,0,1,1.39,24Z"/><rect class="cls-3" x="5.42" y="14.88" width="14.51" height="1.44"/><rect class="cls-3" x="5.42" y="17.75" width="14.51" height="1.44"/><path class="cls-4" d="M28.73,24.44a3.15,3.15,0,0,0,2-.7,3.14,3.14,0,0,1,0-4.89,3.15,3.15,0,1,0-2,5.59Z"/><path class="cls-5" d="M29.55,21.3a3.15,3.15,0,1,0,1.17-2.45A3.15,3.15,0,0,0,29.55,21.3Z"/></g></g></svg>