<?xml version="1.0" encoding="utf-8"?>
<!-- Generator: Adobe Illustrator 23.0.1, SVG Export Plug-In . SVG Version: 6.00 Build 0)  -->
<svg version="1.1" id="Слой_1" xmlns="http://www.w3.org/2000/svg" xmlns:xlink="http://www.w3.org/1999/xlink" x="0px" y="0px"
	 viewBox="0 0 26 26" style="enable-background:new 0 0 26 26;" xml:space="preserve">
<style type="text/css">
	.st0{fill:#DCDEDD;}
</style>
<g>
	<path class="st0" d="M13.4,3.5c-0.3-0.3-0.8-0.3-1.1,0c-0.3,0.3-0.3,0.8,0,1.1c2.3,2.3,3.5,5.3,3.5,8.5s-1.2,6.2-3.5,8.5
		c-0.3,0.3-0.3,0.8,0,1.1c0.1,0.1,0.3,0.2,0.5,0.2c0.2,0,0.4-0.1,0.5-0.2c2.5-2.5,4-5.9,4-9.5S16,6,13.4,3.5z"/>
	<path class="st0" d="M7.9,5.7C7.6,6,7.6,6.5,7.9,6.8c1.7,1.7,2.6,3.9,2.6,6.2c0,2.3-0.9,4.6-2.6,6.2c-0.3,0.3-0.3,0.8,0,1.1
		c0.1,0.1,0.3,0.2,0.5,0.2c0.2,0,0.4-0.1,0.5-0.2c1.9-1.9,3-4.5,3-7.3c0-2.7-1.1-5.3-3-7.3C8.7,5.4,8.2,5.4,7.9,5.7z"/>
	<path class="st0" d="M3.4,8C3.1,8.3,3.1,8.7,3.4,9C4.4,10.1,5,11.5,5,13s-0.6,2.9-1.6,4c-0.3,0.3-0.3,0.8,0,1.1
		c0.1,0.1,0.3,0.2,0.5,0.2c0.2,0,0.4-0.1,0.5-0.2c1.3-1.3,2.1-3.1,2.1-5S5.8,9.3,4.4,8C4.1,7.7,3.7,7.7,3.4,8z"/>
	<path class="st0" d="M18,1.2c-0.3-0.3-0.8-0.3-1.1,0c-0.3,0.3-0.3,0.8,0,1.1C19.8,5.1,21.3,9,21.3,13s-1.6,7.9-4.4,10.7
		c-0.3,0.3-0.3,0.8,0,1.1c0.1,0.1,0.3,0.2,0.5,0.2c0.2,0,0.4-0.1,0.5-0.2c3.2-3.1,4.9-7.3,4.9-11.8C22.8,8.6,21.1,4.4,18,1.2z"/>
</g>
</svg>
