<svg xmlns="http://www.w3.org/2000/svg" viewBox="0 0 52.23 21.03"><defs><style>.cls-1{fill:none;}.cls-2{fill:#353c41;}.cls-3{fill:#4e7dbf;}.cls-4{fill:#33b061;}.cls-5{fill:#fcba2a;}.cls-6{fill:#f05141;}</style></defs><title>Asset 6</title><g id="Layer_2" data-name="Layer 2"><g id="Layer_1-2" data-name="Layer 1"><path class="cls-1" d="M35.32,11.84a1.69,1.69,0,0,0-.78,1.42,1.58,1.58,0,0,0,.63,1.27,2.29,2.29,0,0,0,1.5.51,3,3,0,0,0,2.17-.91,2.9,2.9,0,0,0,1-2.15,3.88,3.88,0,0,0-2.52-.72A3.25,3.25,0,0,0,35.32,11.84Z"/><path class="cls-1" d="M27.94,3.09H24.7V8.41h3.24a2.51,2.51,0,0,0,1.9-.79,2.71,2.71,0,0,0-.06-3.78A2.59,2.59,0,0,0,27.94,3.09Z"/><path class="cls-2" d="M31.2,2.54a4.56,4.56,0,0,0-3.31-1.32H22.77V16.45H24.7V10.28h3.19A4.63,4.63,0,0,0,31.2,9l.21-.22A4.45,4.45,0,0,0,31.2,2.54ZM29.84,7.62a2.51,2.51,0,0,1-1.9.79H24.7V3.09h3.24a2.59,2.59,0,0,1,1.84.75A2.71,2.71,0,0,1,29.84,7.62Z"/><path class="cls-2" d="M40.41,6.84A4.82,4.82,0,0,0,37,5.69a4.65,4.65,0,0,0-4.12,2l1.7,1.08a2.91,2.91,0,0,1,2.55-1.39A2.82,2.82,0,0,1,39,8.13a2.31,2.31,0,0,1,.79,1.74v.45A5.67,5.67,0,0,0,37,9.68a5,5,0,0,0-3.22,1,3.15,3.15,0,0,0-1.21,2.58,3.2,3.2,0,0,0,1.14,2.55,4.09,4.09,0,0,0,2.84,1A3.65,3.65,0,0,0,39.71,15h.09v1.44h1.84V10A4.17,4.17,0,0,0,40.41,6.84Zm-1.57,7.29a3,3,0,0,1-2.17.91,2.29,2.29,0,0,1-1.5-.51,1.58,1.58,0,0,1-.63-1.27,1.69,1.69,0,0,1,.78-1.42,3.25,3.25,0,0,1,2-.58A3.88,3.88,0,0,1,39.8,12,2.9,2.9,0,0,1,38.84,14.13Z"/><polygon class="cls-2" points="50.13 6.03 47.15 13.51 47.12 13.51 44.06 6.03 41.96 6.03 46.19 15.78 43.8 21.03 45.78 21.03 52.23 6.03 50.13 6.03"/><path class="cls-3" d="M8.63,7.17v3.37h4.66a4.06,4.06,0,0,1-1.73,2.66l2.78,2.18A8.58,8.58,0,0,0,16.9,8.94a10.48,10.48,0,0,0-.14-1.77Z"/><path class="cls-4" d="M8.63,14a5.17,5.17,0,0,1-4.84-3.6L.93,12.67v0a8.6,8.6,0,0,0,7.7,4.81,8.16,8.16,0,0,0,5.71-2.12L11.56,13.2A5.14,5.14,0,0,1,8.63,14Z"/><path class="cls-5" d="M3.79,7.08.93,4.82a8.75,8.75,0,0,0,0,7.85l2.86-2.24A5.33,5.33,0,0,1,3.79,7.08Z"/><path class="cls-6" d="M3.79,7.08A5.17,5.17,0,0,1,8.63,3.46a4.58,4.58,0,0,1,3.3,1.32L14.4,2.27A8.29,8.29,0,0,0,8.63,0,8.61,8.61,0,0,0,.93,4.82L3.79,7.08Z"/></g></g></svg>