<svg xmlns="http://www.w3.org/2000/svg" viewBox="0 0 21.94 26.83"><defs><style>.cls-1{fill:none;}.cls-2{fill:#ffc878;}.cls-3{fill:#fff;}.cls-4{fill:#ef866c;}.cls-5{fill:#474c54;}.cls-6{fill:#474d54;}</style></defs><title>Asset 2</title><g id="Layer_2" data-name="Layer 2"><g id="Layer_1-2" data-name="Layer 1"><path class="cls-1" d="M15.14,5a3.28,3.28,0,0,0-3.27-3.27H10.56A3.28,3.28,0,0,0,7.29,5V9.67h7.85Z"/><path class="cls-2" d="M2.07,11.74V24.45H20.39a1.73,1.73,0,0,0,.18-.75V22.58H19a.79.79,0,0,1-.79-.79h0A.79.79,0,0,1,19,21h1.6v-.77H16a.78.78,0,0,1-.79-.78v0a.79.79,0,0,1,.79-.79h4.56v-.76H19a.79.79,0,0,1-.79-.79v0a.79.79,0,0,1,.79-.78h1.6v-.77H16a.78.78,0,0,1-.79-.78v0a.79.79,0,0,1,.79-.79h4.56V11.74ZM11,21.43A1.17,1.17,0,0,1,9.8,20.27v-4.4a1.17,1.17,0,0,1,2.34,0v4.4A1.16,1.16,0,0,1,11,21.43Z"/><polygon class="cls-3" points="2.06 24.45 2.06 11.74 20.57 11.74 20.57 11.05 1.38 11.05 1.38 24.45 2.06 24.45"/><path class="cls-4" d="M16,13.92a.79.79,0,0,0-.79.79v0a.78.78,0,0,0,.79.78h4.56V13.92Z"/><path class="cls-4" d="M18.18,17.06v0a.79.79,0,0,0,.79.79h1.6V16.28H19A.79.79,0,0,0,18.18,17.06Z"/><path class="cls-4" d="M15.22,19.42v0a.78.78,0,0,0,.79.78h4.56V18.63H16A.79.79,0,0,0,15.22,19.42Z"/><path class="cls-4" d="M18.18,21.78h0a.79.79,0,0,0,.79.79h1.6V21H19A.79.79,0,0,0,18.18,21.78Z"/><path class="cls-5" d="M21.26,9.67h-4.4V5a5,5,0,0,0-5-5H10.56a5,5,0,0,0-5,5V9.67H.69a.69.69,0,0,0-.69.69V26.14a.69.69,0,0,0,.69.69H18.82a3.13,3.13,0,0,0,3.12-3.13V10.36A.68.68,0,0,0,21.26,9.67ZM7.29,5a3.28,3.28,0,0,1,3.27-3.27h1.31A3.28,3.28,0,0,1,15.14,5V9.67H7.29ZM1,24.45h.35V11.05H20.57V23.7a1.73,1.73,0,0,1-.18.75h1.07a2.45,2.45,0,0,1-2.3,1.63H1Z"/><path class="cls-5" d="M12.14,20.27v-4.4a1.17,1.17,0,0,0-2.34,0v4.4a1.17,1.17,0,0,0,2.34,0Z"/><path class="cls-6" d="M21.46,24.45H1v1.63H19.16A2.45,2.45,0,0,0,21.46,24.45Z"/></g></g></svg>