<svg xmlns="http://www.w3.org/2000/svg" viewBox="0 0 75.18 20.03"><defs><style>.cls-1{fill:#009ade;}.cls-2{fill:#002f87;}</style></defs><title>Asset 4</title><g id="Layer_2" data-name="Layer 2"><g id="Layer_1-2" data-name="Layer 1"><path class="cls-1" d="M50.73,0H44.88a.81.81,0,0,0-.8.69l-2.36,15a.48.48,0,0,0,.48.56h3a.56.56,0,0,0,.56-.48l.67-4.25a.81.81,0,0,1,.8-.68h1.85c3.86,0,6.08-1.87,6.66-5.56A4.51,4.51,0,0,0,55,1.49,5.44,5.44,0,0,0,50.73,0Zm.68,5.48c-.32,2.1-1.93,2.1-3.48,2.1h-.88l.62-3.92a.48.48,0,0,1,.48-.41h.41c1,0,2,0,2.56.6A2,2,0,0,1,51.41,5.48Z"/><path class="cls-2" d="M9,0H3.17a.81.81,0,0,0-.8.69L0,15.68a.48.48,0,0,0,.48.56H3.28a.81.81,0,0,0,.8-.68l.64-4.05a.81.81,0,0,1,.8-.68H7.37c3.86,0,6.08-1.87,6.66-5.56a4.51,4.51,0,0,0-.75-3.78A5.44,5.44,0,0,0,9,0ZM9.7,5.48c-.32,2.1-1.93,2.1-3.48,2.1H5.34L6,3.66a.48.48,0,0,1,.48-.41h.41c1.05,0,2.05,0,2.56.6A2,2,0,0,1,9.7,5.48Z"/><path class="cls-2" d="M26.5,5.41H23.7a.48.48,0,0,0-.48.41l-.12.78-.2-.28c-.61-.88-2-1.17-3.31-1.17a6.44,6.44,0,0,0-6.25,5.63,5.27,5.27,0,0,0,1,4.3,4.38,4.38,0,0,0,3.53,1.42,5.39,5.39,0,0,0,3.88-1.6l-.13.78a.48.48,0,0,0,.48.56h2.53a.81.81,0,0,0,.8-.68L27,6A.48.48,0,0,0,26.5,5.41Zm-3.9,5.45a3.12,3.12,0,0,1-3.16,2.67,2.37,2.37,0,0,1-1.88-.75,2.37,2.37,0,0,1-.44-2,3.13,3.13,0,0,1,3.14-2.69,2.34,2.34,0,0,1,1.86.76A2.42,2.42,0,0,1,22.6,10.86Z"/><path class="cls-1" d="M68.21,5.41h-2.8a.48.48,0,0,0-.48.41l-.12.78-.2-.28c-.61-.88-2-1.17-3.31-1.17a6.44,6.44,0,0,0-6.25,5.63,5.27,5.27,0,0,0,1,4.3,4.38,4.38,0,0,0,3.53,1.42,5.39,5.39,0,0,0,3.88-1.6l-.13.78a.48.48,0,0,0,.48.56h2.53a.81.81,0,0,0,.8-.68L68.69,6A.48.48,0,0,0,68.21,5.41Zm-3.9,5.45a3.12,3.12,0,0,1-3.16,2.67,2.37,2.37,0,0,1-1.88-.75,2.37,2.37,0,0,1-.44-2A3.13,3.13,0,0,1,62,8.12a2.34,2.34,0,0,1,1.86.76A2.42,2.42,0,0,1,64.31,10.86Z"/><path class="cls-2" d="M41.41,5.41H38.6a.79.79,0,0,0-.67.36l-3.88,5.71L32.4,6a.82.82,0,0,0-.78-.58H28.85a.49.49,0,0,0-.46.64l3.1,9.1-2.91,4.11A.49.49,0,0,0,29,20h2.81a.83.83,0,0,0,.67-.35L41.82,6.17A.49.49,0,0,0,41.41,5.41Z"/><path class="cls-1" d="M71.51.41l-2.4,15.27a.48.48,0,0,0,.48.56H72a.81.81,0,0,0,.8-.68l2.37-15A.5.5,0,0,0,74.69,0H72A.48.48,0,0,0,71.51.41Z"/></g></g></svg>